<?xml version="1.0" encoding="UTF-8"?>
<svg xmlns="http://www.w3.org/2000/svg" xmlns:xlink="http://www.w3.org/1999/xlink" width="567pt" height="567pt" viewBox="0 0 567 567" version="1.1">
<g id="surface1">
<path style=" stroke:none;fill-rule:evenodd;fill:rgb(0%,0%,0%);fill-opacity:1;" d="M 0.078125 566.351563 L 283.261719 566.351563 L 283.261719 -0.0195313 L 0.078125 -0.0195313 Z M 0.078125 566.351563 "/>
<path style=" stroke:none;fill-rule:evenodd;fill:rgb(100%,100%,100%);fill-opacity:1;" d="M 18.761719 96.148438 L 37.660156 96.148438 C 40.980469 96.148438 43.425781 96.90625 45 98.421875 C 46.578125 99.941406 47.363281 102.332031 47.363281 105.59375 L 47.363281 126.210938 C 47.363281 127.984375 46.804688 129.515625 45.6875 130.804688 C 44.574219 132.09375 43.210938 133.050781 41.609375 133.683594 L 41.609375 134.113281 C 45.789063 135.484375 47.878906 138.234375 47.878906 142.359375 L 47.878906 155.84375 L 37.660156 155.84375 L 37.660156 138.234375 L 28.726563 138.234375 L 28.726563 155.84375 L 18.761719 155.84375 Z M 28.726563 129.988281 L 37.574219 129.988281 L 37.574219 104.652344 L 28.726563 104.652344 Z M 84.46875 146.738281 C 84.46875 149.886719 83.609375 152.265625 81.894531 153.867188 C 80.175781 155.46875 77.710938 156.273438 74.507813 156.273438 L 65.402344 156.273438 C 58.757813 156.273438 55.4375 153.09375 55.4375 146.738281 L 55.4375 105.253906 C 55.4375 98.894531 58.757813 95.71875 65.402344 95.71875 L 74.507813 95.71875 C 81.148438 95.71875 84.46875 98.894531 84.46875 105.253906 Z M 74.507813 104.136719 L 65.402344 104.136719 L 65.402344 147.855469 L 74.507813 147.855469 Z M 112.296875 118.136719 L 112.296875 96.148438 L 121.832031 96.148438 L 121.832031 155.84375 L 112.296875 155.84375 L 112.296875 135.484375 L 102.9375 115.128906 L 102.421875 115.128906 L 102.421875 155.84375 L 92.886719 155.84375 L 92.886719 96.148438 L 102.25 96.148438 L 111.699219 118.136719 Z M 149.148438 95.71875 C 152.410156 95.71875 154.886719 96.546875 156.574219 98.207031 C 158.265625 99.871094 159.109375 102.273438 159.109375 105.421875 L 159.109375 155.84375 L 149.148438 155.84375 L 149.148438 139.179688 L 140.300781 139.179688 L 140.300781 155.84375 L 130.335938 155.84375 L 130.335938 105.167969 C 130.335938 98.867188 133.65625 95.71875 140.300781 95.71875 Z M 140.300781 130.761719 L 149.148438 130.761719 L 149.148438 104.308594 L 140.300781 104.308594 Z M 177.578125 146.480469 L 190.71875 146.480469 L 189 155.84375 L 167.613281 155.84375 L 167.613281 96.148438 L 177.578125 96.148438 Z M 213.480469 96.148438 C 220.121094 96.148438 223.445313 99.324219 223.445313 105.679688 L 223.445313 146.222656 C 223.445313 149.316406 222.597656 151.691406 220.910156 153.351563 C 219.21875 155.011719 216.742188 155.84375 213.480469 155.84375 L 194.925781 155.84375 L 194.925781 96.148438 Z M 204.890625 147.769531 L 213.480469 147.769531 L 213.480469 104.222656 L 204.890625 104.222656 Z M 260.722656 146.738281 C 260.722656 149.886719 259.863281 152.265625 258.144531 153.867188 C 256.425781 155.46875 253.964844 156.273438 250.757813 156.273438 L 241.652344 156.273438 C 235.011719 156.273438 231.6875 153.09375 231.6875 146.738281 L 231.6875 105.253906 C 231.6875 98.894531 235.011719 95.71875 241.652344 95.71875 L 250.757813 95.71875 C 257.402344 95.71875 260.722656 98.894531 260.722656 105.253906 Z M 250.757813 104.136719 L 241.652344 104.136719 L 241.652344 147.855469 L 250.757813 147.855469 Z M 250.757813 104.136719 "/>
<path style=" stroke:none;fill-rule:evenodd;fill:rgb(100%,100%,100%);fill-opacity:1;" d="M 210.316406 246.597656 C 193.398438 260.078125 180.511719 274.089844 171.660156 288.625 C 162.804688 303.164063 156.789063 318.230469 153.617188 333.824219 C 150.445313 349.417969 148.859375 367.261719 148.859375 387.351563 L 148.859375 470.214844 L 101.28125 470.214844 L 101.28125 397.65625 C 101.28125 360.390625 106.105469 329.726563 115.753906 305.675781 C 125.402344 281.621094 142.386719 260.609375 166.703125 242.632813 L 166.703125 237.875 L 69.167969 237.875 L 69.167969 194.660156 L 210.316406 194.660156 Z M 210.316406 246.597656 "/>
<path style=" stroke:none;fill-rule:evenodd;fill:rgb(0%,0%,0%);fill-opacity:1;" d="M 119.304688 433.441406 L 119.304688 435.601563 C 119.304688 435.886719 119.222656 436.105469 119.054688 436.265625 C 118.886719 436.425781 118.636719 436.507813 118.308594 436.507813 L 118.214844 436.507813 L 118.214844 436.035156 L 118.304688 436.035156 C 118.464844 436.035156 118.589844 436 118.671875 435.929688 C 118.753906 435.859375 118.792969 435.746094 118.792969 435.589844 L 118.792969 433.894531 L 118.316406 433.894531 L 118.316406 433.441406 Z M 119.304688 433.441406 "/>
<path style=" stroke:none;fill-rule:evenodd;fill:rgb(0%,0%,0%);fill-opacity:1;" d="M 120.238281 436.082031 L 120.710938 436.082031 L 120.710938 433.441406 L 121.222656 433.441406 L 121.222656 436.039063 C 121.222656 436.367188 121.054688 436.53125 120.710938 436.53125 L 120.238281 436.53125 C 119.898438 436.53125 119.726563 436.367188 119.726563 436.039063 L 119.726563 433.441406 L 120.238281 433.441406 Z M 120.238281 436.082031 "/>
<path style=" stroke:none;fill-rule:evenodd;fill:rgb(0%,0%,0%);fill-opacity:1;" d="M 122.164063 436.007813 C 122.296875 436.007813 122.402344 435.941406 122.488281 435.808594 C 122.570313 435.675781 122.613281 435.511719 122.613281 435.316406 L 122.613281 433.441406 L 123.125 433.441406 L 123.125 435.332031 C 123.125 435.710938 123.015625 436 122.800781 436.203125 C 122.585938 436.40625 122.277344 436.507813 121.875 436.507813 L 121.625 436.507813 L 121.625 433.441406 L 122.136719 433.441406 L 122.136719 436.007813 Z M 122.164063 436.007813 "/>
<path style=" stroke:none;fill-rule:evenodd;fill:rgb(0%,0%,0%);fill-opacity:1;" d="M 124.761719 433.910156 L 124.046875 433.910156 L 124.046875 434.71875 L 124.640625 434.71875 L 124.550781 435.171875 L 124.046875 435.171875 L 124.046875 436.039063 L 124.796875 436.039063 L 124.710938 436.507813 L 123.535156 436.507813 L 123.535156 433.441406 L 124.675781 433.441406 Z M 124.761719 433.910156 "/>
<path style=" stroke:none;fill-rule:evenodd;fill:rgb(0%,0%,0%);fill-opacity:1;" d="M 126.09375 434.570313 L 126.09375 433.441406 L 126.582031 433.441406 L 126.582031 436.507813 L 126.09375 436.507813 L 126.09375 435.460938 L 125.609375 434.417969 L 125.585938 434.417969 L 125.585938 436.507813 L 125.09375 436.507813 L 125.09375 433.441406 L 125.574219 433.441406 L 126.0625 434.570313 Z M 126.09375 434.570313 "/>
<path style=" stroke:none;fill-rule:evenodd;fill:rgb(0%,0%,0%);fill-opacity:1;" d="M 128.246094 433.441406 L 128.335938 433.921875 L 127.839844 433.921875 L 127.839844 436.507813 L 127.328125 436.507813 L 127.328125 433.921875 L 126.835938 433.921875 L 126.921875 433.441406 Z M 128.246094 433.441406 "/>
<path style=" stroke:none;fill-rule:evenodd;fill:rgb(0%,0%,0%);fill-opacity:1;" d="M 129.105469 436.082031 L 129.578125 436.082031 L 129.578125 433.441406 L 130.089844 433.441406 L 130.089844 436.039063 C 130.089844 436.367188 129.917969 436.53125 129.578125 436.53125 L 129.105469 436.53125 C 128.765625 436.53125 128.59375 436.367188 128.59375 436.039063 L 128.59375 433.441406 L 129.105469 433.441406 Z M 129.105469 436.082031 "/>
<path style=" stroke:none;fill-rule:evenodd;fill:rgb(0%,0%,0%);fill-opacity:1;" d="M 130.976563 435.492188 L 130.976563 436.101563 L 131.410156 436.101563 L 131.410156 435.679688 C 131.410156 435.574219 131.398438 435.496094 131.367188 435.441406 C 131.339844 435.382813 131.285156 435.328125 131.203125 435.277344 L 130.746094 434.972656 C 130.660156 434.917969 130.59375 434.84375 130.550781 434.757813 C 130.507813 434.667969 130.484375 434.578125 130.484375 434.488281 L 130.484375 433.914063 C 130.484375 433.757813 130.53125 433.636719 130.621094 433.550781 C 130.710938 433.460938 130.820313 433.417969 130.957031 433.417969 L 131.429688 433.417969 C 131.597656 433.417969 131.71875 433.460938 131.789063 433.539063 C 131.863281 433.621094 131.902344 433.742188 131.902344 433.910156 L 131.902344 434.308594 L 131.402344 434.441406 L 131.402344 433.832031 L 130.96875 433.832031 L 130.96875 434.296875 C 130.96875 434.375 130.984375 434.441406 131.015625 434.492188 C 131.042969 434.542969 131.09375 434.59375 131.167969 434.640625 L 131.605469 434.929688 C 131.804688 435.058594 131.90625 435.242188 131.90625 435.476563 L 131.90625 436.074219 C 131.90625 436.230469 131.863281 436.34375 131.773438 436.417969 C 131.683594 436.492188 131.570313 436.53125 131.425781 436.53125 L 130.984375 436.53125 C 130.808594 436.53125 130.679688 436.492188 130.597656 436.421875 C 130.511719 436.347656 130.472656 436.234375 130.472656 436.070313 L 130.472656 435.492188 Z M 130.976563 435.492188 "/>
<path style=" stroke:none;fill-rule:evenodd;fill:rgb(0%,0%,0%);fill-opacity:1;" d="M 118.226563 441.328125 L 118.226563 438.910156 L 126.476563 438.910156 L 126.476563 450.082031 C 126.476563 453.730469 125.433594 455.078125 120.277344 457.339844 C 119.597656 456.507813 119.207031 455.824219 118.886719 455.015625 C 120.992188 454.066406 121.648438 453.667969 121.648438 453.667969 C 123.269531 452.6875 123.695313 452.085938 123.695313 449.59375 L 123.695313 441.328125 Z M 118.226563 441.328125 "/>
<path style=" stroke:none;fill-rule:evenodd;fill:rgb(0%,0%,0%);fill-opacity:1;" d="M 129.125 438.910156 L 131.925781 438.910156 L 131.925781 451.152344 C 131.925781 453.875 131.089844 456.25 129.285156 457.96875 C 128.355469 458.886719 126.753906 459.917969 125.074219 460.675781 C 123.863281 460.089844 123.296875 459.777344 122.367188 459.183594 C 126.945313 456.960938 129.125 455.53125 129.125 450.425781 Z M 129.125 438.910156 "/>
<path style=" stroke:none;fill-rule:evenodd;fill:rgb(0%,0%,0%);fill-opacity:1;" d="M 305.144531 96.148438 L 324.039063 96.148438 C 327.363281 96.148438 329.808594 96.90625 331.382813 98.421875 C 332.960938 99.941406 333.746094 102.332031 333.746094 105.59375 L 333.746094 126.210938 C 333.746094 127.984375 333.1875 129.515625 332.070313 130.804688 C 330.957031 132.09375 329.59375 133.050781 327.992188 133.683594 L 327.992188 134.113281 C 332.171875 135.484375 334.261719 138.234375 334.261719 142.359375 L 334.261719 155.84375 L 324.039063 155.84375 L 324.039063 138.234375 L 315.109375 138.234375 L 315.109375 155.84375 L 305.144531 155.84375 Z M 315.109375 129.988281 L 323.957031 129.988281 L 323.957031 104.652344 L 315.109375 104.652344 Z M 370.851563 146.738281 C 370.851563 149.886719 369.992188 152.265625 368.277344 153.867188 C 366.558594 155.46875 364.09375 156.273438 360.886719 156.273438 L 351.785156 156.273438 C 345.140625 156.273438 341.820313 153.09375 341.820313 146.738281 L 341.820313 105.253906 C 341.820313 98.894531 345.140625 95.71875 351.785156 95.71875 L 360.886719 95.71875 C 367.53125 95.71875 370.851563 98.894531 370.851563 105.253906 Z M 360.886719 104.136719 L 351.785156 104.136719 L 351.785156 147.855469 L 360.886719 147.855469 Z M 398.679688 118.136719 L 398.679688 96.148438 L 408.214844 96.148438 L 408.214844 155.84375 L 398.679688 155.84375 L 398.679688 135.484375 L 389.320313 115.128906 L 388.804688 115.128906 L 388.804688 155.84375 L 379.269531 155.84375 L 379.269531 96.148438 L 388.632813 96.148438 L 398.082031 118.136719 Z M 435.53125 95.71875 C 438.792969 95.71875 441.269531 96.546875 442.957031 98.207031 C 444.648438 99.871094 445.492188 102.273438 445.492188 105.421875 L 445.492188 155.84375 L 435.53125 155.84375 L 435.53125 139.179688 L 426.683594 139.179688 L 426.683594 155.84375 L 416.71875 155.84375 L 416.71875 105.167969 C 416.71875 98.867188 420.039063 95.71875 426.683594 95.71875 Z M 426.683594 130.761719 L 435.53125 130.761719 L 435.53125 104.308594 L 426.683594 104.308594 Z M 463.960938 146.480469 L 477.101563 146.480469 L 475.382813 155.84375 L 453.996094 155.84375 L 453.996094 96.148438 L 463.960938 96.148438 Z M 499.863281 96.148438 C 506.503906 96.148438 509.824219 99.324219 509.824219 105.679688 L 509.824219 146.222656 C 509.824219 149.316406 508.980469 151.691406 507.292969 153.351563 C 505.601563 155.011719 503.125 155.84375 499.863281 155.84375 L 481.308594 155.84375 L 481.308594 96.148438 Z M 491.273438 147.769531 L 499.863281 147.769531 L 499.863281 104.222656 L 491.273438 104.222656 Z M 547.105469 146.738281 C 547.105469 149.886719 546.246094 152.265625 544.527344 153.867188 C 542.808594 155.46875 540.347656 156.273438 537.140625 156.273438 L 528.035156 156.273438 C 521.394531 156.273438 518.070313 153.09375 518.070313 146.738281 L 518.070313 105.253906 C 518.070313 98.894531 521.394531 95.71875 528.035156 95.71875 L 537.140625 95.71875 C 543.78125 95.71875 547.105469 98.894531 547.105469 105.253906 Z M 537.140625 104.136719 L 528.035156 104.136719 L 528.035156 147.855469 L 537.140625 147.855469 Z M 537.140625 104.136719 "/>
<path style=" stroke:none;fill-rule:evenodd;fill:rgb(0%,0%,0%);fill-opacity:1;" d="M 496.699219 246.597656 C 479.78125 260.078125 466.894531 274.089844 458.042969 288.625 C 449.1875 303.164063 443.171875 318.230469 440 333.824219 C 436.828125 349.417969 435.242188 367.261719 435.242188 387.351563 L 435.242188 470.214844 L 387.664063 470.214844 L 387.664063 397.65625 C 387.664063 360.390625 392.488281 329.726563 402.136719 305.675781 C 411.785156 281.621094 428.769531 260.609375 453.085938 242.632813 L 453.085938 237.875 L 355.550781 237.875 L 355.550781 194.660156 L 496.699219 194.660156 Z M 496.699219 246.597656 "/>
<path style=" stroke:none;fill-rule:evenodd;fill:rgb(100%,100%,100%);fill-opacity:1;" d="M 405.6875 433.441406 L 405.6875 435.601563 C 405.6875 435.886719 405.605469 436.105469 405.4375 436.265625 C 405.269531 436.425781 405.019531 436.507813 404.691406 436.507813 L 404.597656 436.507813 L 404.597656 436.035156 L 404.6875 436.035156 C 404.847656 436.035156 404.972656 436 405.054688 435.929688 C 405.136719 435.859375 405.175781 435.746094 405.175781 435.589844 L 405.175781 433.894531 L 404.699219 433.894531 L 404.699219 433.441406 Z M 405.6875 433.441406 "/>
<path style=" stroke:none;fill-rule:evenodd;fill:rgb(100%,100%,100%);fill-opacity:1;" d="M 406.621094 436.082031 L 407.09375 436.082031 L 407.09375 433.441406 L 407.605469 433.441406 L 407.605469 436.039063 C 407.605469 436.367188 407.4375 436.53125 407.09375 436.53125 L 406.621094 436.53125 C 406.28125 436.53125 406.109375 436.367188 406.109375 436.039063 L 406.109375 433.441406 L 406.621094 433.441406 Z M 406.621094 436.082031 "/>
<path style=" stroke:none;fill-rule:evenodd;fill:rgb(100%,100%,100%);fill-opacity:1;" d="M 408.546875 436.007813 C 408.675781 436.007813 408.785156 435.941406 408.871094 435.808594 C 408.953125 435.675781 408.996094 435.511719 408.996094 435.316406 L 408.996094 433.441406 L 409.507813 433.441406 L 409.507813 435.332031 C 409.507813 435.710938 409.398438 436 409.183594 436.203125 C 408.964844 436.40625 408.660156 436.507813 408.257813 436.507813 L 408.007813 436.507813 L 408.007813 433.441406 L 408.519531 433.441406 L 408.519531 436.007813 Z M 408.546875 436.007813 "/>
<path style=" stroke:none;fill-rule:evenodd;fill:rgb(100%,100%,100%);fill-opacity:1;" d="M 411.144531 433.910156 L 410.429688 433.910156 L 410.429688 434.71875 L 411.023438 434.71875 L 410.933594 435.171875 L 410.429688 435.171875 L 410.429688 436.039063 L 411.179688 436.039063 L 411.09375 436.507813 L 409.917969 436.507813 L 409.917969 433.441406 L 411.058594 433.441406 Z M 411.144531 433.910156 "/>
<path style=" stroke:none;fill-rule:evenodd;fill:rgb(100%,100%,100%);fill-opacity:1;" d="M 412.476563 434.570313 L 412.476563 433.441406 L 412.964844 433.441406 L 412.964844 436.507813 L 412.476563 436.507813 L 412.476563 435.460938 L 411.992188 434.417969 L 411.96875 434.417969 L 411.96875 436.507813 L 411.476563 436.507813 L 411.476563 433.441406 L 411.957031 433.441406 L 412.445313 434.570313 Z M 412.476563 434.570313 "/>
<path style=" stroke:none;fill-rule:evenodd;fill:rgb(100%,100%,100%);fill-opacity:1;" d="M 414.628906 433.441406 L 414.71875 433.921875 L 414.222656 433.921875 L 414.222656 436.507813 L 413.710938 436.507813 L 413.710938 433.921875 L 413.21875 433.921875 L 413.304688 433.441406 Z M 414.628906 433.441406 "/>
<path style=" stroke:none;fill-rule:evenodd;fill:rgb(100%,100%,100%);fill-opacity:1;" d="M 415.488281 436.082031 L 415.960938 436.082031 L 415.960938 433.441406 L 416.472656 433.441406 L 416.472656 436.039063 C 416.472656 436.367188 416.300781 436.53125 415.960938 436.53125 L 415.488281 436.53125 C 415.148438 436.53125 414.976563 436.367188 414.976563 436.039063 L 414.976563 433.441406 L 415.488281 433.441406 Z M 415.488281 436.082031 "/>
<path style=" stroke:none;fill-rule:evenodd;fill:rgb(100%,100%,100%);fill-opacity:1;" d="M 417.355469 435.492188 L 417.355469 436.101563 L 417.792969 436.101563 L 417.792969 435.679688 C 417.792969 435.574219 417.78125 435.496094 417.75 435.441406 C 417.71875 435.382813 417.667969 435.328125 417.585938 435.277344 L 417.128906 434.972656 C 417.042969 434.917969 416.976563 434.84375 416.933594 434.757813 C 416.890625 434.667969 416.867188 434.578125 416.867188 434.488281 L 416.867188 433.914063 C 416.867188 433.757813 416.914063 433.636719 417.003906 433.550781 C 417.09375 433.460938 417.203125 433.417969 417.339844 433.417969 L 417.8125 433.417969 C 417.980469 433.417969 418.101563 433.460938 418.171875 433.539063 C 418.246094 433.621094 418.285156 433.742188 418.285156 433.910156 L 418.285156 434.308594 L 417.785156 434.441406 L 417.785156 433.832031 L 417.351563 433.832031 L 417.351563 434.296875 C 417.351563 434.375 417.367188 434.441406 417.398438 434.492188 C 417.425781 434.542969 417.476563 434.59375 417.550781 434.640625 L 417.988281 434.929688 C 418.1875 435.058594 418.289063 435.242188 418.289063 435.476563 L 418.289063 436.074219 C 418.289063 436.230469 418.246094 436.34375 418.15625 436.417969 C 418.066406 436.492188 417.953125 436.53125 417.808594 436.53125 L 417.367188 436.53125 C 417.191406 436.53125 417.0625 436.492188 416.980469 436.421875 C 416.894531 436.347656 416.855469 436.234375 416.855469 436.070313 L 416.855469 435.492188 Z M 417.355469 435.492188 "/>
<path style=" stroke:none;fill-rule:evenodd;fill:rgb(100%,100%,100%);fill-opacity:1;" d="M 404.609375 441.328125 L 404.609375 438.910156 L 412.859375 438.910156 L 412.859375 450.082031 C 412.859375 453.730469 411.816406 455.078125 406.660156 457.339844 C 405.980469 456.507813 405.589844 455.824219 405.269531 455.015625 C 407.375 454.066406 408.03125 453.667969 408.03125 453.667969 C 409.652344 452.6875 410.078125 452.085938 410.078125 449.59375 L 410.078125 441.328125 Z M 404.609375 441.328125 "/>
<path style=" stroke:none;fill-rule:evenodd;fill:rgb(100%,100%,100%);fill-opacity:1;" d="M 415.507813 438.910156 L 418.308594 438.910156 L 418.308594 451.152344 C 418.308594 453.875 417.472656 456.25 415.667969 457.96875 C 414.738281 458.886719 413.136719 459.917969 411.457031 460.675781 C 410.246094 460.089844 409.679688 459.777344 408.75 459.183594 C 413.328125 456.960938 415.507813 455.53125 415.507813 450.425781 Z M 415.507813 438.910156 "/>
<path style="fill:none;stroke-width:2.16;stroke-linecap:butt;stroke-linejoin:miter;stroke:rgb(13.719177%,12.156677%,12.547302%);stroke-opacity:1;stroke-miterlimit:4;" d="M 0.78125 -0.9375 L 5670.078125 -0.9375 L 5670.078125 5670.195313 L 0.78125 5670.195313 Z M 0.78125 -0.9375 " transform="matrix(0.1,0,0,-0.1,0,567)"/>
</g>
</svg>
