<?xml version="1.0" encoding="UTF-8"?>
<!DOCTYPE svg PUBLIC "-//W3C//DTD SVG 1.1//EN" "http://www.w3.org/Graphics/SVG/1.1/DTD/svg11.dtd">
<!-- Creator: CorelDRAW X7 -->
<svg xmlns="http://www.w3.org/2000/svg" xml:space="preserve" width="5.06976in" height="3.80405in" version="1.1" style="shape-rendering:geometricPrecision; text-rendering:geometricPrecision; image-rendering:optimizeQuality; fill-rule:evenodd; clip-rule:evenodd"
viewBox="0 0 5070 3804"
 xmlns:xlink="http://www.w3.org/1999/xlink">
 <defs>
  <style type="text/css">
   <![CDATA[
    .str0 {stroke:#373435;stroke-width:6.94488}
    .fil1 {fill:#FEFEFE}
    .fil0 {fill:#201E1E}
   ]]>
  </style>
 </defs>
 <g id="Layer_x0020_1">
  <metadata id="CorelCorpID_0Corel-Layer"/>
  <rect class="fil0 str0" x="3" y="3" width="5063" height="3797"/>
  <path class="fil1" d="M4291 127l182 0c65,0 119,53 119,118l0 3320c0,66 -54,119 -119,119l-182 0c-65,0 -118,-53 -118,-119l0 -3320c0,-65 53,-118 118,-118zm-2000 0l311 0 130 0 0 148 0 50c-116,104 -187,242 -193,431l0 431c-26,-10 -87,-13 -103,-17 -19,-5 -13,-18 -16,-25 -2,-5 -13,-6 -23,-13l0 -376c8,-229 98,-365 205,-456l0 -25 -311 0 0 -148zm248 1292l0 1916c-10,-43 -25,-107 -42,-153 -27,-73 -81,-213 -88,-220 -2,-3 -7,-9 -12,-19l0 -1598c3,1 7,2 13,4 14,4 86,45 117,65 2,1 7,3 12,5zm-5 2265l-137 0 0 -321c7,10 14,20 21,29 16,21 77,159 76,185 -1,27 8,24 24,64 5,14 10,29 16,43zm-1411 -3557l31 0 151 0c65,0 119,53 119,118l0 82 0 236 0 61c0,61 -47,112 -106,118l0 1c53,6 96,48 104,101l2 0 0 17 0 302c-3,5 -6,9 -10,15 -13,20 -21,47 -33,79 -13,32 -21,34 -51,49 -30,15 -38,41 -44,54 -1,1 -2,3 -4,4l0 -114 0 -287 0 -148 -2 0 -130 0 -2 0 0 148 0 287 0 210c-33,27 -109,88 -143,112l0 -829 0 -119 0 -61 0 -236 0 -20 0 -62 0 -118 118 0zm301 1348l0 667c-4,12 -8,28 -12,48 -8,46 -27,206 -46,283 -19,77 -20,159 -17,172 3,13 9,23 12,45 3,21 -10,43 -40,108 -29,66 -2,97 -25,131 -4,5 -9,12 -14,20l0 -776 0 -167 0 -423c17,-10 31,-19 41,-26 42,-32 87,-70 101,-82zm0 1725l0 100 4 0 0 384 -4 0 -142 0 0 -263c10,-9 27,-31 51,-78 25,-49 66,-109 91,-143zm-276 -1547l0 353 0 167 0 1127 2 0 0 71c-9,36 -19,71 -31,99 -36,78 -80,121 -114,136l0 -41 0 -265 0 -1565c9,-6 17,-11 23,-13 30,-12 23,-15 43,-20 20,-5 39,-28 47,-34 2,-1 13,-7 30,-15zm134 -972l-2 0 -130 0 -2 0 0 -354 0 -64 2 0 130 0 2 0 0 64 0 354zm671 102l0 158c-22,-20 -38,-42 -38,-42 0,0 -5,-42 -5,-83 0,-8 -1,-19 -1,-33l44 0zm0 1865l0 904 125 0 0 -802c4,6 7,10 8,13 13,18 48,108 72,147 21,36 46,54 56,74l0 581c0,66 -51,119 -112,119l-172 0c-61,0 -112,-53 -112,-119l0 -1102 61 189 74 -4zm125 -1651l0 -27 2 -183c-41,-82 -120,-120 -180,-166l0 -1c-1,-5 -2,-9 -8,-29 -5,-20 -22,-66 -53,-87 -5,-3 -11,-6 -17,-8 0,-1 0,-1 0,-2l-4 -53 0 -196c0,-65 51,-118 112,-118l172 0c61,0 112,53 112,118l0 195 -136 40 0 -217 -125 0 0 156c0,126 265,158 260,346l1 205 0 57c-18,-3 -38,-8 -50,-14 -27,-11 -29,-38 -29,-38 0,0 -43,20 -57,22zm136 328l0 1044c-22,-62 -88,-249 -87,-283 2,-42 27,-44 18,-82 -10,-38 -21,-65 -36,-101 -15,-35 -14,-208 -19,-257 -5,-49 56,-243 64,-269 8,-25 7,-41 60,-52l0 0zm-660 -1198l143 0 0 374c-15,7 -29,18 -42,32 -26,27 -29,49 -29,79 -1,30 19,122 19,122 0,0 -16,-3 -23,2 -7,6 -5,19 2,42 7,23 33,36 39,42 6,5 28,32 34,52l0 93c-4,3 -8,7 -14,12 -11,10 -33,15 -47,12 -14,-4 -14,18 -27,21 -12,2 -14,-1 -21,4 -5,5 -11,10 -34,25l0 -912zm143 2561l0 996 -143 0 0 -897c13,-33 30,-72 39,-81 14,-11 78,-16 104,-18zm-1108 -2561l182 0c66,0 119,53 119,118l0 508 -143 0 0 -490 -133 0 0 3289 133 0 0 -2582 143 0 0 644c-4,0 -9,0 -17,0 -13,-1 -61,-8 -78,-19 -17,-11 -20,-1 -20,-1 0,0 10,27 28,37 19,10 54,12 58,21 5,9 -14,28 -29,41 -15,13 -49,38 -74,67 -24,29 -2,34 2,34 5,0 32,-27 51,-43 19,-16 47,-20 54,-11 6,9 -83,99 -85,116 -2,16 14,19 25,13 11,-7 68,-91 74,-91 5,0 2,7 -5,19 -7,12 -38,51 -47,74 -9,23 -1,20 12,17 14,-3 21,-26 42,-48 3,-2 5,-5 9,-8l0 1733c0,66 -53,119 -119,119l-182 0c-65,0 -118,-53 -118,-119l0 -3320c0,-65 53,-118 118,-118zm3031 0l143 0 134 352 0 -352 143 0 0 3557 -143 0 0 -2929 -134 -320 0 3249 -143 0 0 -3557zm-810 0l142 0 0 1232c-11,1 -21,0 -27,-2 -13,-3 -17,-18 -24,-24 -6,-5 -54,-15 -91,-17l0 -1189zm142 1367l0 2190 -142 0 0 -2199c9,1 22,2 35,3 20,1 38,-4 58,-5 12,-1 28,5 49,11zm243 -1367l182 0c66,0 119,53 119,118l0 3055 4 0 0 384 -123 0 -22 0 0 -2294 -135 0 0 30c-8,-2 -15,-4 -20,-5 -11,-3 -56,-10 -68,-10 -13,0 -32,-16 -32,-21 0,-6 10,-12 21,-35 12,-24 3,-43 -2,-49 -4,-7 -12,3 -13,14 -1,9 -15,24 -29,28l0 -1097c0,-65 53,-118 118,-118zm25 1315l0 28c-18,-5 -37,-10 -45,-14 -14,-8 -9,-15 -9,-15 0,0 30,1 54,1zm0 55l0 42c-20,-13 -47,-30 -55,-36 -13,-11 0,-17 0,-17 0,0 30,7 55,11zm0 70l0 1733 2 0 0 384 -27 0 -118 0 0 -119 0 -265 0 -1765c10,4 17,8 19,10 9,5 51,71 68,80 16,10 18,-4 17,-12 -2,-8 -40,-51 -49,-67 -9,-16 -3,-26 11,-26 11,0 53,30 77,47zm135 -317l0 -987 -2 0 -131 0 -2 0 0 987 135 0zm961 -987l132 0 0 3289 -132 0 0 -3289z"/>
 </g>
</svg>
