<?xml version="1.0" encoding="UTF-8"?>
<svg xmlns="http://www.w3.org/2000/svg" xmlns:xlink="http://www.w3.org/1999/xlink" width="680pt" height="710pt" viewBox="0 0 680 710" version="1.1">
<g id="surface1">
<rect x="0" y="0" width="680" height="710" style="fill:rgb(14.501953%,51.756287%,77.734375%);fill-opacity:1;stroke:none;"/>
<path style=" stroke:none;fill-rule:nonzero;fill:rgb(100%,100%,100%);fill-opacity:1;" d="M 454.253906 258.460938 L 439.257813 286.460938 L 521.765625 286.460938 L 385.953125 605.234375 L 581.367188 258.460938 L 454.253906 258.460938 "/>
<path style=" stroke:none;fill-rule:nonzero;fill:rgb(85.546875%,6.665039%,49.804688%);fill-opacity:1;" d="M 468.679688 234.835938 L 495.285156 234.835938 L 542.914063 104.765625 Z M 468.679688 234.835938 "/>
<path style=" stroke:none;fill-rule:nonzero;fill:rgb(85.546875%,6.665039%,49.804688%);fill-opacity:1;" d="M 426.648438 351.722656 C 435.589844 335.953125 433.933594 320.445313 433.210938 313.660156 C 432.457031 306.597656 430.796875 292.773438 420.304688 279.972656 C 406.808594 263.507813 388.078125 259.722656 382.679688 259.335938 C 356.980469 257.484375 331.441406 259.335938 305.679688 259.335938 L 305.679688 450.085938 L 335.136719 450.085938 L 335.136719 286.453125 C 335.136719 286.453125 365.488281 285.328125 375.523438 286.457031 C 378.21875 286.757813 392.269531 290.539063 399.960938 304.035156 C 407.375 317.050781 406.324219 332.515625 394.054688 344.722656 C 384.859375 353.863281 374.238281 355.65625 361.242188 356.433594 C 355.222656 356.792969 349.714844 356.796875 344.835938 356.433594 C 363.796875 387.691406 382.761719 418.828125 401.722656 450.085938 L 432.648438 450.085938 C 418.324219 426.484375 404.003906 402.882813 389.679688 379.28125 C 394.347656 378.054688 415.121094 372.050781 426.648438 351.722656 "/>
<path style=" stroke:none;fill-rule:nonzero;fill:rgb(85.546875%,6.665039%,49.804688%);fill-opacity:1;" d="M 248.9375 399.613281 C 245.742188 404.210938 235.757813 417.296875 217.304688 423.253906 C 180.003906 435.289063 140.519531 408.578125 130.382813 371.21875 C 118.757813 328.359375 151.925781 284.585938 194.773438 282.597656 C 216.691406 281.578125 237.539063 290.507813 250.179688 309.210938 C 261.597656 309.210938 273.019531 309.210938 284.4375 309.210938 C 281.730469 301.339844 278.328125 295.574219 275.785156 291.84375 C 258.871094 267.023438 229.683594 259.574219 231.59375 260.210938 C 157.574219 235.535156 81.859375 298.4375 101.804688 376.585938 C 120.707031 450.648438 208.445313 479.398438 264.261719 427.042969 C 274.609375 417.335938 281.042969 407.175781 284.945313 399.609375 L 248.9375 399.613281 "/>
</g>
</svg>
