<?xml version="1.0" encoding="UTF-8"?>
<svg xmlns="http://www.w3.org/2000/svg" xmlns:xlink="http://www.w3.org/1999/xlink" width="427pt" height="527pt" viewBox="0 0 427 527" version="1.1">
<g id="surface1">
<rect x="0" y="0" width="427" height="527" style="fill:rgb(11.376953%,11.376953%,10.594177%);fill-opacity:1;stroke:none;"/>
<path style=" stroke:none;fill-rule:nonzero;fill:rgb(100%,100%,100%);fill-opacity:1;" d="M 96.121094 54.027344 L 96.121094 61.628906 L 104.289063 61.628906 L 104.289063 90.785156 C 104.289063 96.34375 100.773438 96.460938 99.183594 96.460938 L 94.984375 96.460938 L 94.984375 104.171875 L 100.546875 104.0625 C 107.351563 104.0625 112.570313 97.027344 112.570313 93.851563 L 112.570313 54.027344 "/>
<path style=" stroke:none;fill-rule:nonzero;fill:rgb(100%,100%,100%);fill-opacity:1;" d="M 137.984375 104.175781 C 140.128906 104.175781 144.113281 101.679688 144.113281 97.707031 L 144.113281 54.027344 L 135.148438 54.027344 L 135.148438 96.570313 L 128.230469 96.570313 L 128.230469 54.027344 L 119.265625 54.027344 L 119.265625 97.707031 C 119.265625 101.679688 123.25 104.175781 125.390625 104.175781 "/>
<path style=" stroke:none;fill-rule:nonzero;fill:rgb(100%,100%,100%);fill-opacity:1;" d="M 165.78125 91.011719 L 165.78125 54.027344 L 174.746094 54.027344 L 174.746094 89.765625 C 174.746094 99.976563 165.667969 104.175781 160.324219 104.175781 L 149.898438 104.175781 L 149.898438 54.027344 L 158.863281 54.027344 L 158.863281 95.324219 C 162.945313 95.324219 165.78125 93.621094 165.78125 91.011719 "/>
<path style=" stroke:none;fill-rule:nonzero;fill:rgb(100%,100%,100%);fill-opacity:1;" d="M 181.367188 104.175781 L 181.367188 54.027344 L 200.148438 54.027344 L 201.746094 61.96875 L 190.289063 61.96875 L 190.289063 75.125 L 199.59375 75.125 L 198.003906 81.824219 L 190.402344 81.824219 L 190.402344 96.230469 L 202.542969 96.230469 L 200.5 104.175781 "/>
<path style=" stroke:none;fill-rule:nonzero;fill:rgb(100%,100%,100%);fill-opacity:1;" d="M 207.5 104.175781 L 216 104.175781 L 216 71 L 223 85.875 L 223 104.175781 L 231.625 104.175781 L 231.625 54.027344 L 223.375 54.027344 L 223.375 72.375 L 215.125 54.027344 L 207.5 54.027344 "/>
<path style=" stroke:none;fill-rule:nonzero;fill:rgb(100%,100%,100%);fill-opacity:1;" d="M 238.125 54.027344 L 236.5 61.875 L 244 61.875 L 244 104.171875 L 252.625 104.171875 L 252.625 61.875 L 260.375 61.875 L 258.875 54.027344 "/>
<path style=" stroke:none;fill-rule:nonzero;fill:rgb(100%,100%,100%);fill-opacity:1;" d="M 264.375 98.503906 L 264.375 54.027344 L 273.25 54.027344 L 273.25 96.875 L 280.511719 96.875 L 280.511719 54.027344 L 289.386719 54.027344 L 289.386719 98.503906 C 289.386719 105.75 264.375 106.132813 264.375 98.503906 "/>
<path style=" stroke:none;fill-rule:nonzero;fill:rgb(100%,100%,100%);fill-opacity:1;" d="M 295.136719 87.125 L 304.011719 87.125 L 304.011719 96.625 L 310.5 96.625 L 310.5 88 C 310.5 83.625 295.136719 79.125 295.136719 74.125 L 295.136719 60.125 C 295.136719 56.25 299.636719 54.027344 301.5 54.027344 L 312.875 54.027344 C 317.988281 54.027344 318.5 59.125 318.5 60 L 318.5 68.25 L 310.625 70.5 L 310.625 60.5 L 303.5 60.5 L 303.5 70.125 C 305.25 74.375 319.375 80.625 319.375 84.5 L 319.375 98.5 C 319.375 103.125 316.390625 104.085938 313.625 104.085938 L 301.875 104.085938 C 301.875 104.085938 295.136719 104 295.136719 99.375 "/>
<path style=" stroke:none;fill-rule:nonzero;fill:rgb(100%,100%,100%);fill-opacity:1;" d="M 94.984375 144 L 229.5 144 L 229.5 336.5 C 229.5 370.5 224 403 129.5 444.5 L 105.5 407 C 139.5 394 183.5 370.5 183.5 339.5 L 183.5 183 L 94.984375 183 "/>
<path style=" stroke:none;fill-rule:nonzero;fill:rgb(100%,100%,100%);fill-opacity:1;" d="M 273 144 L 319.375 144 L 319.375 353.5 C 319.375 422.5 276.5 467.5 207 499.5 L 162.242188 475 C 198.429688 457.730469 273 424.5 273 351 "/>
</g>
</svg>
