<?xml version="1.0" encoding="UTF-8"?>
<svg xmlns="http://www.w3.org/2000/svg" xmlns:xlink="http://www.w3.org/1999/xlink" width="595.8pt" height="546pt" viewBox="0 0 595.8 546" version="1.1">
<g id="surface1">
<path style=" stroke:none;fill-rule:evenodd;fill:rgb(10.594177%,9.812927%,9.423828%);fill-opacity:1;" d="M 0.078125 545.933594 L 595.890625 545.933594 L 595.890625 -0.0664063 L 0.078125 -0.0664063 Z M 0.078125 545.933594 "/>
<path style=" stroke:none;fill-rule:evenodd;fill:rgb(100%,100%,100%);fill-opacity:1;" d="M 183.710938 138.773438 L 318.226563 138.773438 L 318.226563 331.273438 C 318.226563 365.273438 312.726563 397.773438 218.226563 439.273438 L 194.226563 401.773438 C 228.226563 388.773438 272.226563 365.273438 272.226563 334.273438 L 272.226563 177.773438 L 183.710938 177.773438 Z M 183.710938 138.773438 "/>
<path style=" stroke:none;fill-rule:evenodd;fill:rgb(100%,100%,100%);fill-opacity:1;" d="M 361.726563 138.773438 L 408.101563 138.773438 L 408.101563 348.273438 C 408.101563 417.273438 365.226563 462.273438 295.726563 494.273438 L 250.96875 469.773438 C 287.15625 452.507813 361.726563 419.273438 361.726563 345.773438 Z M 361.726563 138.773438 "/>
<path style=" stroke:none;fill-rule:evenodd;fill:rgb(100%,100%,100%);fill-opacity:1;" d="M 184.847656 48.800781 L 184.847656 56.402344 L 193.015625 56.402344 L 193.015625 85.5625 C 193.015625 91.121094 189.496094 91.234375 187.910156 91.234375 L 183.710938 91.234375 L 183.710938 98.949219 L 189.269531 98.835938 C 196.078125 98.835938 201.296875 91.800781 201.296875 88.625 L 201.296875 48.800781 Z M 184.847656 48.800781 "/>
<path style=" stroke:none;fill-rule:evenodd;fill:rgb(100%,100%,100%);fill-opacity:1;" d="M 226.710938 98.949219 C 228.855469 98.949219 232.835938 96.453125 232.835938 92.480469 L 232.835938 48.800781 L 223.875 48.800781 L 223.875 91.347656 L 216.957031 91.347656 L 216.957031 48.800781 L 207.992188 48.800781 L 207.992188 92.480469 C 207.992188 96.453125 211.976563 98.949219 214.117188 98.949219 Z M 226.710938 98.949219 "/>
<path style=" stroke:none;fill-rule:evenodd;fill:rgb(100%,100%,100%);fill-opacity:1;" d="M 254.507813 85.789063 L 254.507813 48.800781 L 263.472656 48.800781 L 263.472656 84.539063 C 263.472656 94.75 254.394531 98.949219 249.050781 98.949219 L 238.625 98.949219 L 238.625 48.800781 L 247.585938 48.800781 L 247.585938 90.097656 C 251.671875 90.097656 254.507813 88.394531 254.507813 85.789063 Z M 254.507813 85.789063 "/>
<path style=" stroke:none;fill-rule:evenodd;fill:rgb(100%,100%,100%);fill-opacity:1;" d="M 270.09375 98.949219 L 270.09375 48.800781 L 288.871094 48.800781 L 290.472656 56.742188 L 279.015625 56.742188 L 279.015625 69.898438 L 288.320313 69.898438 L 286.730469 76.597656 L 279.128906 76.597656 L 279.128906 91.007813 L 291.269531 91.007813 L 289.226563 98.949219 Z M 270.09375 98.949219 "/>
<path style=" stroke:none;fill-rule:evenodd;fill:rgb(100%,100%,100%);fill-opacity:1;" d="M 296.226563 98.949219 L 304.726563 98.949219 L 304.726563 65.773438 L 311.726563 80.648438 L 311.726563 98.949219 L 320.351563 98.949219 L 320.351563 48.800781 L 312.101563 48.800781 L 312.101563 67.148438 L 303.851563 48.800781 L 296.226563 48.800781 Z M 296.226563 98.949219 "/>
<path style=" stroke:none;fill-rule:evenodd;fill:rgb(100%,100%,100%);fill-opacity:1;" d="M 326.851563 48.800781 L 325.226563 56.648438 L 332.726563 56.648438 L 332.726563 98.949219 L 341.351563 98.949219 L 341.351563 56.648438 L 349.101563 56.648438 L 347.601563 48.800781 Z M 326.851563 48.800781 "/>
<path style=" stroke:none;fill-rule:evenodd;fill:rgb(100%,100%,100%);fill-opacity:1;" d="M 353.101563 93.277344 L 353.101563 48.800781 L 361.976563 48.800781 L 361.976563 91.648438 L 369.238281 91.648438 L 369.238281 48.800781 L 378.113281 48.800781 L 378.113281 93.277344 C 378.113281 100.523438 353.101563 100.90625 353.101563 93.277344 Z M 353.101563 93.277344 "/>
<path style=" stroke:none;fill-rule:evenodd;fill:rgb(100%,100%,100%);fill-opacity:1;" d="M 383.863281 81.898438 L 392.738281 81.898438 L 392.738281 91.398438 L 399.226563 91.398438 L 399.226563 82.773438 C 399.226563 78.398438 383.863281 73.898438 383.863281 68.898438 L 383.863281 54.898438 C 383.863281 51.023438 388.363281 48.800781 390.226563 48.800781 L 401.601563 48.800781 C 406.710938 48.800781 407.226563 53.898438 407.226563 54.773438 L 407.226563 63.023438 L 399.351563 65.273438 L 399.351563 55.273438 L 392.226563 55.273438 L 392.226563 64.898438 C 393.976563 69.148438 408.101563 75.398438 408.101563 79.273438 L 408.101563 93.273438 C 408.101563 97.898438 405.113281 98.859375 402.351563 98.859375 L 390.601563 98.859375 C 390.601563 98.859375 383.863281 98.773438 383.863281 94.148438 Z M 383.863281 81.898438 "/>
</g>
</svg>
